<?xml version="1.0" ?><!DOCTYPE svg  PUBLIC '-//W3C//DTD SVG 1.1//EN'  'http://www.w3.org/Graphics/SVG/1.1/DTD/svg11.dtd'><svg enable-background="new 0 0 1024 1024" height="1024px" id="Iconfinder" version="1.1" viewBox="0 0 1024 1024" width="1024px" xml:space="preserve" xmlns="http://www.w3.org/2000/svg" xmlns:xlink="http://www.w3.org/1999/xlink"><g id="Background"><rect fill="none" height="964" id="bg" stroke="#000000" stroke-miterlimit="10" stroke-width="60" width="963.984" x="30.008" y="30"/></g><g id="Iconfinder_1_"><path d="M781.816,461.414c-62.012-105.127-163.972-208.927-351.571-160.277c0,0,82.99-67.321,195.075-28.168   s-88.285-99.034-112.084-99.034s-149.097,77.154-212.27,184.25c-61.886,104.913-98.845,245.875,36.026,383.775   c-20.256-9.355-100.806-52.479-120.095-154.235c-22.113-116.648-41.646,125.967-29.751,146.58   c11.896,20.614,143.165,92.299,265.682,91.758c121.625-0.537,261.941-37.213,314.15-222.224   c2.037,22.302,4.953,113.536-73.432,181.113c-89.922,77.521,129.9-26.987,141.791-47.603   C847.232,716.736,841.834,563.16,781.816,461.414z" fill="#020202"/><path d="M724.306,489.616c-34.489-28.795-71.571-46.596-104.941-57.585c-23.28-8.232-49.396-13.865-77.258-16.246   c-18.662-1.787-30.104-1.286-30.104-1.286h-0.001c0,0-11.44-0.501-30.103,1.286c-27.861,2.38-53.974,8.013-77.255,16.244   c-33.372,10.991-70.457,28.79-104.946,57.588c0,0-8.875,30.887,3.523,76.938c43.666,176.854,324.728,189.665,403.064,38.617   c0.087-0.156,0.178-0.309,0.259-0.478c0.056-0.114,0.106-0.226,0.159-0.34c5.908-11.541,10.636-24.03,13.988-37.474   C733.224,520.648,724.306,489.616,724.306,489.616z M513.379,641.046c-56.601,0-102.487-45.758-102.487-102.202   c0-12.84,2.382-25.123,6.715-36.442c6.507,15.81,22.056,26.943,40.21,26.943c24.008,0,43.472-19.462,43.472-43.472   c0-18.779-11.911-34.778-28.588-40.854c12.47-5.385,26.225-8.373,40.679-8.373c56.602,0,102.488,45.756,102.488,102.199   C615.868,595.288,569.98,641.046,513.379,641.046z" fill="#FFFFFF"/></g></svg>